<svg enable-background="new 0 0 310 85" viewBox="0 0 310 85" xmlns="http://www.w3.org/2000/svg"><path d="m99.31 8.95h16.87v68.83h-16.87z" fill="#025ba7"/><path d="m3.86 60.58h42.17v17.21h-42.17z" fill="#f99c1c"/><path d="m3.86 34.76h42.17v17.21h-42.17z" fill="#6bb346"/><path d="m3.86 8.95h42.17v17.21h-42.17z" fill="#3ea1da"/><path d="m68.35 26.16h8.43v8.6h-8.43zm-16.87-17.21v68.83h16.87v-25.81h25.3v-43.02z" fill="#025ba7"/><g fill="#192b56"><path d="m188.75 77.75h5.04l-4.46-6.31 4.2-6.12h-4.87l-2.11 3.29-2.14-3.29h-5.06l4.22 6.05-4.44 6.38h4.9l2.35-3.58zm-11.47-.65 1.1-3.43-.07-.05c-1.46.62-2.88 1.03-4.51 1.03-1.73 0-3-.7-3.43-2.09h8.14c.05-.24.07-.77.07-1.03 0-3.58-1.94-6.55-6.07-6.55-3.84 0-6.41 2.98-6.41 6.5 0 3.94 2.66 6.5 6.77 6.5 1.89.01 3.09-.3 4.41-.88m-4.8-9.07c1.1 0 1.87.84 1.99 2.23h-4.08c.17-1.41 1.01-2.23 2.09-2.23m-12.77 9.72h4.39v-18.17l-4.54 1.06v5.62c-.89-.67-1.94-1.1-3.12-1.1-3.26 0-5.81 2.78-5.81 6.7 0 3.58 2.26 6.14 5.14 6.14 1.61 0 2.81-.65 3.94-1.97zm-2.25-3.48c-1.44 0-2.47-.98-2.47-2.69 0-1.66 1.08-2.76 2.59-2.76.65 0 1.27.17 1.99.5v4.32c-.77.44-1.42.63-2.11.63m-14.91-5.3c1.13 0 1.68.72 1.68 1.92v6.86h4.54v-7.99c0-3.07-1.63-4.73-4.06-4.73-1.73 0-3 .72-4.32 2.5v-2.35l-4.39.45v12.12h4.54v-8.11c.79-.5 1.34-.67 2.01-.67m-14.4 8.78h4.85v-16.8h-4.85z"/><path d="m279.74 51.1 1.1-3.43-.07-.05c-1.46.62-2.88 1.03-4.51 1.03-1.73 0-3-.7-3.43-2.09h8.14c.05-.24.07-.77.07-1.03 0-3.58-1.94-6.55-6.07-6.55-3.84 0-6.41 2.98-6.41 6.5 0 3.94 2.66 6.5 6.77 6.5 1.89.01 3.09-.3 4.41-.88m-4.8-9.07c1.1 0 1.87.84 1.99 2.23h-4.08c.17-1.41 1.01-2.23 2.09-2.23m-8.33 8.93.46-4.13-.07-.05c-1.01.72-2.5 1.22-3.77 1.22-1.54 0-2.54-.98-2.54-2.45 0-1.49.98-2.5 2.64-2.5 1.15 0 2.42.53 3.5 1.3l.07-.02v-4.18c-1.06-.65-2.35-1.1-4.03-1.1-3.98 0-6.67 2.76-6.67 6.46 0 4.15 2.81 6.5 6.36 6.5 1.62.01 2.99-.43 4.05-1.05m-18.48-7.99c1.13 0 1.68.72 1.68 1.92v6.86h4.54v-7.99c0-3.07-1.63-4.73-4.06-4.73-1.73 0-3 .72-4.32 2.5v-2.35l-4.39.46v12.12h4.54v-8.11c.78-.51 1.34-.68 2.01-.68m-13.3 8.93 4.32-.46v-6.6c0-3.82-2.02-5.76-5.83-5.76-1.99 0-3.48.48-4.66 1.1l-.6 3.79.1.07c1.44-.96 2.88-1.44 4.13-1.44 1.46 0 2.23.65 2.35 1.99-5.38.02-7.68 1.49-7.68 4.03 0 2.04 1.44 3.34 3.6 3.34 1.54 0 2.86-.6 4.27-1.75zm-2.54-2.79c-.82 0-1.32-.36-1.32-1.01 0-.72.55-1.42 3.7-1.66v2.06c-.99.42-1.76.61-2.38.61m-21.36-6.14c1.1 0 1.63.72 1.63 1.92v6.86h4.54v-8.23c.7-.41 1.2-.55 1.8-.55 1.1 0 1.63.72 1.63 1.92v6.86h4.54v-7.99c0-3.07-1.66-4.73-4.08-4.73-1.7 0-2.98.7-4.3 2.38-.6-1.56-1.9-2.38-3.58-2.38-1.63 0-2.88.67-4.13 2.3v-2.16l-4.39.46v12.12h4.54v-8.23c.69-.41 1.2-.55 1.8-.55m-9.12.91c.48 0 .77.02 1.03.07l-.26-4.73c-.31-.07-.5-.1-.77-.1-1.27 0-2.33.77-3.99 3.36v-3.31l-4.39.46v12.12h4.54v-6.82c1.25-.64 2.47-1.05 3.84-1.05m-17.19-1.08c1.42 0 2.5 1.13 2.5 2.71s-1.06 2.74-2.5 2.74c-1.42 0-2.5-1.1-2.5-2.71.01-1.56 1.06-2.74 2.5-2.74m-6.81 2.74c0 3.41 2.57 6.55 6.82 6.55 4.18 0 6.84-3.14 6.84-6.58 0-3.41-2.59-6.53-6.84-6.53-4.18 0-6.82 3.15-6.82 6.56m-.79-2.79v-3.43h-3.72v-.67c0-1.06.72-1.66 1.85-1.66.77 0 1.37.17 2.09.46l.07-.05-.43-3.31c-.86-.29-1.66-.48-3.02-.48-3 0-4.94 1.75-4.94 4.97v.74h-1.85v3.43h1.85v9h4.51v-9zm-11.96 1.13c.48 0 .77.02 1.03.07l-.26-4.73c-.31-.07-.5-.1-.77-.1-1.27 0-2.33.77-3.98 3.36v-3.31l-4.39.46v12.12h4.54v-6.82c1.24-.64 2.47-1.05 3.83-1.05m-11.68 7.22 1.1-3.43-.07-.05c-1.46.62-2.88 1.03-4.51 1.03-1.73 0-3-.7-3.43-2.09h8.14c.05-.24.07-.77.07-1.03 0-3.58-1.94-6.55-6.07-6.55-3.84 0-6.41 2.98-6.41 6.5 0 3.94 2.66 6.5 6.77 6.5 1.89.01 3.09-.3 4.41-.88m-4.8-9.07c1.1 0 1.87.84 1.99 2.23h-4.08c.17-1.41 1.01-2.23 2.09-2.23m-14.21 4.8c4.18 0 7.03-2.21 7.03-6.02 0-3.91-2.86-5.86-7.25-5.86h-6.07v16.8h4.85v-4.92zm-1.51-8.01h1.18c1.75 0 2.64.84 2.64 2.11 0 1.37-.94 2.21-2.66 2.21h-1.15v-4.32z"/><path d="m298.98 25.75h4.54v-18.17l-4.54 1.06zm-6.81.15 4.32-.46v-6.6c0-3.82-2.02-5.76-5.83-5.76-1.99 0-3.48.48-4.66 1.1l-.6 3.79.1.07c1.44-.96 2.88-1.44 4.13-1.44 1.46 0 2.23.65 2.35 1.99-5.38.02-7.68 1.49-7.68 4.03 0 2.04 1.44 3.34 3.6 3.34 1.54 0 2.86-.6 4.27-1.75zm-2.55-2.79c-.82 0-1.32-.36-1.32-1.01 0-.72.55-1.42 3.7-1.66v2.06c-.99.42-1.75.61-2.38.61m-7.2 2.04.62-3.7-.07-.05c-.82.55-1.49.84-2.26.84-1.1 0-1.78-.55-1.78-1.73v-3.77h4.01v-3.43h-4.01v-3.5l-4.49.91v2.59h-1.75v3.43h1.75v4.22c0 3.48 1.58 5.04 4.49 5.04 1.36.02 2.56-.3 3.49-.85m-17.66-8.18c1.13 0 1.68.72 1.68 1.92v6.86h4.54v-7.99c0-3.07-1.63-4.73-4.06-4.73-1.73 0-3 .72-4.32 2.5v-2.35l-4.39.46v12.12h4.54v-8.11c.79-.51 1.34-.68 2.01-.68m-9.86 8.13 1.1-3.43-.07-.05c-1.46.62-2.88 1.03-4.51 1.03-1.73 0-3-.7-3.43-2.09h8.14c.05-.24.07-.77.07-1.03 0-3.58-1.94-6.55-6.07-6.55-3.84 0-6.41 2.98-6.41 6.5 0 3.94 2.66 6.5 6.77 6.5 1.89.01 3.09-.3 4.41-.88m-4.8-9.07c1.1 0 1.87.84 1.99 2.23h-4.08c.17-1.41 1.01-2.23 2.09-2.23m-22.37.94c1.1 0 1.63.72 1.63 1.92v6.86h4.54v-8.23c.7-.41 1.2-.55 1.8-.55 1.1 0 1.63.72 1.63 1.92v6.86h4.54v-7.99c0-3.07-1.66-4.73-4.08-4.73-1.7 0-2.98.7-4.3 2.38-.6-1.56-1.9-2.38-3.58-2.38-1.63 0-2.88.67-4.13 2.3v-2.16l-4.39.46v12.12h4.54v-8.23c.69-.41 1.2-.55 1.8-.55m-15.1 0c1.13 0 1.68.72 1.68 1.92v6.86h4.54v-7.99c0-3.07-1.63-4.73-4.06-4.73-1.73 0-3 .72-4.32 2.5v-2.35l-4.39.46v12.12h4.54v-8.11c.79-.51 1.34-.68 2.01-.68m-15.36-.17c1.42 0 2.5 1.13 2.5 2.71s-1.06 2.74-2.5 2.74c-1.42 0-2.5-1.1-2.5-2.71.01-1.56 1.06-2.74 2.5-2.74m-6.81 2.74c0 3.41 2.57 6.55 6.82 6.55 4.18 0 6.84-3.14 6.84-6.58 0-3.41-2.59-6.53-6.84-6.53-4.18 0-6.82 3.15-6.82 6.56m-2.04-1.66c.48 0 .77.02 1.03.07l-.26-4.73c-.31-.07-.5-.1-.77-.1-1.27 0-2.33.77-3.98 3.36v-3.31l-4.39.46v12.12h4.54v-6.82c1.23-.64 2.46-1.05 3.83-1.05m-15.7 7.87h4.54v-12.43h-4.54zm4.92-16.29c0-1.42-1.13-2.45-2.64-2.45s-2.66 1.03-2.66 2.45 1.15 2.47 2.66 2.47 2.64-1.06 2.64-2.47m-16.01 16.56h3.79l5.76-12.7h-4.87l-2.69 7.03-2.62-7.03h-4.94zm-12.62-9.05c1.13 0 1.68.72 1.68 1.92v6.86h4.54v-7.99c0-3.07-1.63-4.73-4.06-4.73-1.73 0-3 .72-4.32 2.5v-2.35l-4.39.46v12.12h4.54v-8.11c.78-.51 1.34-.68 2.01-.68m-20.93 8.78h11.52l.65-4.06h-7.39v-2.64h6.02v-3.48h-6.02v-2.57h7.32l-.65-4.06h-11.45z"/></g></svg>